<?xml version="1.0" encoding="utf-8"?>
<!-- Generator: Adobe Illustrator 19.0.1, SVG Export Plug-In . SVG Version: 6.00 Build 0)  -->
<svg version="1.1" id="Слой_1" xmlns="http://www.w3.org/2000/svg" xmlns:xlink="http://www.w3.org/1999/xlink" x="0px" y="0px"
	 viewBox="0 0 80.6 37.2" style="enable-background:new 0 0 80.6 37.2;" xml:space="preserve">
<style type="text/css">
	.st0{fill:url(#SVGID_1_);}
	.st1{fill:#9C773E;}
</style>
<g id="_x34_">
	
		<image style="overflow:visible;opacity:0.4;" width="411" height="231" xlink:href="30E674FC.png"  transform="matrix(0.24 0 0 0.24 -9 -11.0052)">
	</image>
	<g>
		<g>
			<linearGradient id="SVGID_1_" gradientUnits="userSpaceOnUse" x1="40.295" y1="37.2167" x2="40.295" y2="0.3483">
				<stop  offset="0" style="stop-color:#E7C174"/>
				<stop  offset="1" style="stop-color:#CD994A"/>
			</linearGradient>
			<path class="st0" d="M80.2,28.4l-27,8.8c-2.2-5-7.2-8.5-13-8.5c-5.8,0-10.8,3.5-13,8.5l-27-8.8c0.2-0.6,0.4-1.2,0.7-1.8
				C9.4,6.3,32.2-4.5,53.4,2.4c12.4,4,21.4,12.4,26.1,24.2C79.8,27.2,80,27.8,80.2,28.4z"/>
			<path class="st1" d="M79.9,26.5C75.1,14.6,66,6.1,53.5,2.1C32.3-4.8,9.1,5.9,0.7,26.5c-0.3,0.6-0.5,1.2-0.7,1.8v0l0.4,0.1
				l0.3,0.1l0.1-0.3c0.2-0.5,0.3-0.9,0.5-1.4C9.7,6.6,32.5-4,53.3,2.8c12.3,4,21.2,12.3,25.9,24c0.2,0.5,0.4,0.9,0.5,1.4l0.1,0.4
				l0.4-0.1l0.3-0.1C80.4,27.7,80.2,27.1,79.9,26.5z"/>
		</g>
	</g>
</g>
</svg>
