<?xml version="1.0" encoding="utf-8"?>
<!-- Generator: Adobe Illustrator 19.0.1, SVG Export Plug-In . SVG Version: 6.00 Build 0)  -->
<svg version="1.1" id="Слой_1" xmlns="http://www.w3.org/2000/svg" xmlns:xlink="http://www.w3.org/1999/xlink" x="0px" y="0px"
	 viewBox="0 0 80.6 37.2" style="enable-background:new 0 0 80.6 37.2;" xml:space="preserve">
<style type="text/css">
	.st0{fill:#FFFFFF;}
	.st1{fill:#E7B56C;}
</style>
<g>
	<path class="st0" d="M0.5,28.1c0.2-0.5,0.4-1,0.6-1.4C7.5,10.9,23.3,0.4,40.4,0.4c4.4,0,8.8,0.7,13,2.1c12.4,4,21.4,12.4,26.1,24.2
		c0.2,0.5,0.4,0.9,0.5,1.4l-26.6,8.7c-2.4-5.1-7.5-8.4-13.2-8.4c-5.7,0-10.8,3.3-13.2,8.4L0.5,28.1z"/>
	<path class="st1" d="M40.4,0.7C40.4,0.7,40.4,0.7,40.4,0.7c4.4,0,8.7,0.7,12.9,2c12.3,4,21.2,12.3,25.9,24c0.1,0.3,0.3,0.7,0.4,1
		l-25.9,8.4C51.2,31.2,46,28,40.3,28c-5.7,0-10.9,3.3-13.4,8.4L1,27.9c0.1-0.4,0.3-0.7,0.4-1.1C4.6,19,10,12.4,17.1,7.7
		C24.1,3.2,32.1,0.7,40.4,0.7 M40.4,0c-17,0-33,10.1-39.7,26.5c-0.3,0.6-0.5,1.2-0.7,1.8v0l0.4,0.1l27,8.8c2.2-5,7.2-8.5,13-8.5
		c5.8,0,10.8,3.5,13,8.5l26.6-8.6l0,0l0.4-0.1l0.3-0.1c-0.2-0.6-0.4-1.2-0.7-1.8C75.1,14.6,66,6.1,53.5,2.1C49.2,0.7,44.8,0,40.4,0
		L40.4,0z"/>
</g>
</svg>
