<?xml version="1.0" encoding="utf-8"?>
<!-- Generator: Adobe Illustrator 19.0.1, SVG Export Plug-In . SVG Version: 6.00 Build 0)  -->
<svg version="1.1" id="Слой_1" xmlns="http://www.w3.org/2000/svg" xmlns:xlink="http://www.w3.org/1999/xlink" x="0px" y="0px"
	 viewBox="0 0 48 30.8" style="enable-background:new 0 0 48 30.8;" xml:space="preserve">
<style type="text/css">
	.st0{fill:url(#SVGID_1_);}
	.st1{fill:#9C773E;}
	.st2{display:none;fill:#9C773E;}
</style>
<g id="_x31_">
	<g>
		
			<image style="overflow:visible;opacity:0.4;" width="276" height="204" xlink:href="283C43EB.png"  transform="matrix(0.24 0 0 0.24 -9 -7)">
		</image>
		<g>
			<g>
				<linearGradient id="SVGID_1_" gradientUnits="userSpaceOnUse" x1="24.095" y1="-3.265086e-010" x2="24.095" y2="30.3775">
					<stop  offset="0" style="stop-color:#E7C174"/>
					<stop  offset="1" style="stop-color:#CD994A"/>
				</linearGradient>
				<path class="st0" d="M48,22.9c-14.6,10-33.1,10-47.8,0l0.2-0.3L16.8,0c2.1,1.3,4.6,2,7.3,2c2.7,0,5.1-0.8,7.3-2L48,22.9z"/>
				<path class="st1" d="M48,22.9l-0.2-0.3l-0.3,0.2c-14.4,9.7-32.3,9.7-46.7,0l-0.3-0.2l-0.2,0.3L0,23.2c7.4,5.1,15.8,7.6,24.1,7.6
					c8.3,0,16.7-2.5,24.1-7.6l0,0L48,22.9z"/>
			</g>
		</g>
	</g>
	<path class="st2" d="M47.6,22.3c0,0-10.4,7.3-23.5,7.3S0.6,22.3,0.6,22.3l-0.4,0.6c14.6,10,33.1,10,47.8,0L47.6,22.3z"/>
</g>
</svg>
