<?xml version="1.0" encoding="utf-8"?>
<!-- Generator: Adobe Illustrator 19.0.1, SVG Export Plug-In . SVG Version: 6.00 Build 0)  -->
<svg version="1.1" id="Слой_1" xmlns="http://www.w3.org/2000/svg" xmlns:xlink="http://www.w3.org/1999/xlink" x="0px" y="0px"
	 viewBox="0 0 33.1 45.9" style="enable-background:new 0 0 33.1 45.9;" xml:space="preserve">
<style type="text/css">
	.st0{fill:url(#SVGID_1_);}
	.st1{fill:#9C773E;}
</style>
<g id="_x33_">
	<g>
		
			<image style="overflow:visible;opacity:0.4;" width="210" height="261" xlink:href="96E68FE3.png"  transform="matrix(0.24 0 0 0.24 -11 -8.1231)">
		</image>
		<g>
			
				<linearGradient id="SVGID_1_" gradientUnits="userSpaceOnUse" x1="29.8505" y1="11.4164" x2="2.7243" y2="27.0777" gradientTransform="matrix(-1 0 0 1 33.0603 0)">
				<stop  offset="0" style="stop-color:#E7C174"/>
				<stop  offset="1" style="stop-color:#CD994A"/>
			</linearGradient>
			<path class="st0" d="M0,23l16.2,22.3C29.9,34.5,35.4,17.6,30.6,0.9L4.4,9.4c0.2,1,0.3,2,0.3,2.9C4.7,16.4,3,20.2,0,23z"/>
		</g>
	</g>
	<path class="st1" d="M30.6,0.9L31,0.8l0.4-0.1c4.8,17-0.8,34.3-14.7,45.2l-0.2-0.3l-0.2-0.3C29.9,34.5,35.4,17.6,30.6,0.9z"/>
</g>
</svg>
