<?xml version="1.0" encoding="utf-8"?>
<!-- Generator: Adobe Illustrator 19.0.1, SVG Export Plug-In . SVG Version: 6.00 Build 0)  -->
<svg version="1.1" id="Слой_1" xmlns="http://www.w3.org/2000/svg" xmlns:xlink="http://www.w3.org/1999/xlink" x="0px" y="0px"
	 viewBox="0 0 48.2 31.3" style="enable-background:new 0 0 48.2 31.3;" xml:space="preserve">
<style type="text/css">
	.st0{fill:#FFFFFF;}
	.st1{fill:#E7B56C;}
</style>
<g>
	<path class="st0" d="M24.1,30.9c-8.3,0-16.4-2.5-23.6-7.3L16.9,1c2.2,1.3,4.7,1.9,7.2,1.9c2.5,0,5-0.7,7.2-1.9l16.4,22.6
		C40.5,28.4,32.4,30.9,24.1,30.9z"/>
	<path class="st1" d="M17,1.5c2.2,1.2,4.6,1.8,7.1,1.8c2.4,0,4.9-0.6,7.1-1.8l16,22c-7,4.6-15,7.1-23,7.1c-8.1,0-16-2.4-23-7.1
		L17,1.5 M16.8,0.5L0.4,23l-0.2,0.3L0,23.7c7.4,5.1,15.8,7.6,24.1,7.6c8.3,0,16.7-2.5,24.1-7.6l0,0L48,23.4L31.4,0.5
		c-2.1,1.3-4.6,2-7.3,2C21.4,2.5,19,1.8,16.8,0.5L16.8,0.5z"/>
</g>
</svg>
