<?xml version="1.0" encoding="utf-8"?>
<!-- Generator: Adobe Illustrator 19.0.1, SVG Export Plug-In . SVG Version: 6.00 Build 0)  -->
<svg version="1.1" id="Слой_1" xmlns="http://www.w3.org/2000/svg" xmlns:xlink="http://www.w3.org/1999/xlink" x="0px" y="0px"
	 viewBox="0 0 33.1 45.9" style="enable-background:new 0 0 33.1 45.9;" xml:space="preserve">
<style type="text/css">
	.st0{fill:#FFFFFF;}
	.st1{fill:#E7B56C;}
</style>
<g>
	<path class="st0" d="M16.3,45.3C2.9,34.6-2.6,17.7,2,1.1l0.4,0.1l25.9,8.4c-0.2,0.9-0.2,1.8-0.2,2.7c0,4,1.7,7.9,4.5,10.7l-16,22
		L16.3,45.3z"/>
	<path class="st1" d="M2.2,1.6l25.6,8.3c-0.1,0.8-0.2,1.6-0.2,2.4c0,4,1.6,7.9,4.4,10.8L16.3,44.8C3.3,34.2-2.1,17.8,2.2,1.6
		 M1.7,0.7c-4.8,17,0.8,34.3,14.7,45.2l0.2-0.3l0.2-0.3L33.1,23c-3-2.8-4.7-6.6-4.7-10.7c0-0.9,0.1-1.9,0.3-2.9L2.4,0.9L2.1,0.8
		L1.7,0.7L1.7,0.7z"/>
</g>
</svg>
