<?xml version="1.0" encoding="utf-8"?>
<!-- Generator: Adobe Illustrator 19.0.1, SVG Export Plug-In . SVG Version: 6.00 Build 0)  -->
<svg version="1.1" id="Слой_1" xmlns="http://www.w3.org/2000/svg" xmlns:xlink="http://www.w3.org/1999/xlink" x="0px" y="0px"
	 viewBox="-281 399 32.7 45.2" style="enable-background:new -281 399 32.7 45.2;" xml:space="preserve">
<style type="text/css">
	.st0{fill:#FFFFFF;}
	.st1{fill:#E8B66C;}
</style>
<g>
	<path class="st0" d="M-264.7,443.4l-16-22c2.9-2.8,4.5-6.7,4.5-10.7c0-0.9-0.1-1.8-0.2-2.7l25.9-8.4l0.3-0.1
		c4.6,16.6-0.9,33.5-14.4,44.2L-264.7,443.4z"/>
	<path class="st1" d="M-250.4,399.9c4.3,16.2-1,32.6-14,43.2l-15.8-21.7c2.8-2.9,4.4-6.7,4.4-10.8c0-0.8-0.1-1.6-0.2-2.4
		L-250.4,399.9 M-249.8,399l-0.4,0.1l-0.4,0.1l-26.3,8.5c0.2,1,0.3,2,0.3,2.9c0,4-1.7,7.9-4.7,10.7l16.2,22.3l0.2,0.3l0.2,0.3
		C-250.6,433.3-245,416-249.8,399L-249.8,399z"/>
</g>
</svg>
