<?xml version="1.0" encoding="utf-8"?>
<!-- Generator: Adobe Illustrator 19.0.1, SVG Export Plug-In . SVG Version: 6.00 Build 0)  -->
<svg version="1.1" id="Слой_1" xmlns="http://www.w3.org/2000/svg" xmlns:xlink="http://www.w3.org/1999/xlink" x="0px" y="0px"
	 viewBox="0 0 33.6 45.7" style="enable-background:new 0 0 33.6 45.7;" xml:space="preserve">
<style type="text/css">
	.st0{fill:url(#SVGID_1_);}
	.st1{fill:#9C773E;}
</style>
<g id="_x33_">
	<g>
		
			<image style="overflow:visible;opacity:0.4;" width="210" height="261" xlink:href="3372FABF.png"  transform="matrix(0.24 0 0 0.24 -10.2515 -8.2481)">
		</image>
		<g>
			<linearGradient id="SVGID_1_" gradientUnits="userSpaceOnUse" x1="29.8505" y1="11.2914" x2="2.7243" y2="26.9527">
				<stop  offset="0" style="stop-color:#E7C174"/>
				<stop  offset="1" style="stop-color:#CD994A"/>
			</linearGradient>
			<path class="st0" d="M33.1,22.9L16.9,45.2C3.2,34.4-2.3,17.5,2.4,0.8l26.3,8.5c-0.2,1-0.3,2-0.3,2.9
				C28.4,16.3,30.1,20.1,33.1,22.9z"/>
		</g>
	</g>
	<path class="st1" d="M2.4,0.8L2.1,0.7L1.7,0.6c-4.8,17,0.8,34.3,14.7,45.2l0.2-0.3l0.2-0.3C3.2,34.4-2.3,17.5,2.4,0.8z"/>
</g>
</svg>
