<?xml version="1.0" encoding="utf-8"?>
<!-- Generator: Adobe Illustrator 22.1.0, SVG Export Plug-In . SVG Version: 6.00 Build 0)  -->
<svg version="1.1" xmlns="http://www.w3.org/2000/svg" xmlns:xlink="http://www.w3.org/1999/xlink" x="0px" y="0px"
	 viewBox="0 0 80.6 37.2" style="enable-background:new 0 0 80.6 37.2;" xml:space="preserve">
<style type="text/css">
	.st0{display:none;}
	.st1{display:inline;}
	.st2{fill:url(#SVGID_1_);}
	.st3{fill:#9C763E;}
	.st4{display:none;fill:#9C763E;}
	.st5{fill:url(#SVGID_2_);}
	.st6{fill:url(#SVGID_3_);}
	.st7{fill:url(#SVGID_4_);}
	.st8{fill:#FFFFFF;}
	.st9{fill:#E8B66C;}
	.st10{fill:url(#SVGID_5_);}
</style>
<g id="Layer_1" class="st0">
</g>
<g id="Layer_3" class="st0">
	<g class="st1">
		<path class="st8" d="M50.7,53.6c2.9-2.8,4.6-6.7,4.6-10.7c0-0.9-0.1-1.8-0.3-2.7l25.9-8.4c1.3,4.7,1.8,9.5,1.5,14.2
			c0,0.4-0.1,0.9-0.1,1.3l0,0l0,0.1c-0.1,0.6-0.1,1.3-0.2,2c-0.1,0.7-0.2,1.4-0.4,2c-0.1,0.4-0.2,0.8-0.2,1.1
			c-0.1,0.4-0.2,0.7-0.3,1.1c-0.1,0.3-0.1,0.5-0.2,0.7l-0.1,0.2c-0.1,0.4-0.2,0.8-0.4,1.3l0,0.1c-0.2,0.5-0.3,0.9-0.5,1.4
			c-0.2,0.5-0.3,0.9-0.5,1.4c-0.2,0.4-0.3,0.8-0.5,1.3c-2.7,6-6.9,11.4-12.2,15.7L50.7,53.6z"/>
		<path class="st9" d="M80.7,32.2c1.2,4.6,1.7,9.2,1.3,13.7c0,0.4-0.1,0.9-0.1,1.3l0,0.1v0c-0.1,0.7-0.2,1.3-0.2,1.9l0,0.1v0.1
			c-0.1,0.7-0.2,1.3-0.3,1.9c-0.1,0.4-0.2,0.8-0.2,1.1c-0.1,0.4-0.2,0.7-0.3,1.1c-0.1,0.2-0.1,0.5-0.2,0.7l0,0.2
			c-0.1,0.4-0.2,0.8-0.4,1.3l0,0.1l0,0c-0.2,0.5-0.3,0.9-0.5,1.4c-0.2,0.5-0.3,0.9-0.5,1.4c-0.2,0.4-0.3,0.8-0.5,1.2
			c-2.6,5.9-6.6,11.1-11.8,15.3L51.2,53.6c2.8-2.9,4.4-6.7,4.4-10.8c0-0.8-0.1-1.6-0.2-2.4L80.7,32.2 M81.2,31.3L81.2,31.3l-0.4,0.1
			l-0.3,0.1l-25.9,8.4c0.2,1,0.3,2,0.3,2.9c0,4.1-1.7,7.9-4.7,10.7l16.1,22.1l0.1,0.2l0.2,0.3l0,0.1c5.6-4.4,9.9-10,12.6-16.1
			c0.2-0.4,0.4-0.8,0.5-1.3c0.2-0.5,0.4-0.9,0.5-1.4c0.2-0.5,0.3-0.9,0.5-1.4c0,0,0-0.1,0-0.1c0.2-0.5,0.3-1,0.4-1.5
			c0.1-0.2,0.1-0.5,0.2-0.8c0.1-0.4,0.2-0.7,0.3-1.1c0.1-0.4,0.2-0.8,0.3-1.2c0.1-0.7,0.3-1.3,0.4-2c0,0,0,0,0,0
			c0.1-0.7,0.2-1.3,0.3-2c0,0,0,0,0-0.1c0-0.4,0.1-0.9,0.1-1.3C83.1,41.1,82.6,36.2,81.2,31.3L81.2,31.3z"/>
	</g>
	<g class="st1">
		<path class="st8" d="M13.7,75.9C0.3,65.1-5.2,48.3-0.6,31.7l0.4,0.1l25.9,8.4c-0.2,0.9-0.2,1.8-0.2,2.7c0,4,1.7,7.9,4.5,10.7
			l-16,22L13.7,75.9z"/>
		<path class="st9" d="M-0.4,32.1l25.6,8.3c-0.1,0.8-0.2,1.6-0.2,2.4c0,4,1.6,7.9,4.4,10.8L13.7,75.4C0.6,64.8-4.7,48.3-0.4,32.1
			 M-0.9,31.2c-4.8,17,0.8,34.3,14.7,45.2l0.2-0.3l0.2-0.3l16.2-22.3c-3-2.8-4.7-6.6-4.7-10.7c0-0.9,0.1-1.9,0.3-2.9l-26.3-8.5
			l-0.4-0.1L-0.9,31.2L-0.9,31.2z"/>
	</g>
	<g class="st1">
		<path class="st8" d="M0.5,28.1c0.2-0.5,0.4-1,0.6-1.4C7.5,10.9,23.3,0.4,40.4,0.4c4.4,0,8.8,0.7,13,2.1
			c12.4,4,21.4,12.4,26.1,24.2c0.2,0.5,0.4,0.9,0.5,1.4l-26.6,8.7c-2.4-5.1-7.5-8.4-13.2-8.4c-5.7,0-10.8,3.3-13.2,8.4L0.5,28.1z"/>
		<path class="st9" d="M40.4,0.8C40.4,0.8,40.4,0.8,40.4,0.8c4.4,0,8.7,0.7,12.9,2c12.3,4,21.2,12.3,25.9,24c0.1,0.3,0.3,0.7,0.4,1
			l-25.9,8.4C51.2,31.2,46,28,40.3,28c-5.7,0-10.9,3.3-13.4,8.4L1,27.9c0.1-0.4,0.3-0.7,0.4-1.1C4.6,19,10,12.4,17.1,7.7
			C24.1,3.2,32.2,0.8,40.4,0.8 M40.4,0c-17,0-33,10.1-39.7,26.5c-0.2,0.6-0.5,1.2-0.7,1.8v0l0.4,0.1l27,8.8c2.2-5,7.2-8.5,13-8.5
			c5.8,0,10.8,3.5,13,8.5l26.6-8.6l0,0l0.4-0.1l0.3-0.1c-0.2-0.6-0.4-1.2-0.7-1.8C75.2,14.6,66,6.1,53.5,2.1C49.2,0.7,44.8,0,40.4,0
			L40.4,0z"/>
	</g>
</g>
<g id="Layer_4">
	<g>
		<g>
			<linearGradient id="SVGID_1_" gradientUnits="userSpaceOnUse" x1="40.3078" y1="37.22" x2="40.3078" y2="-9.094947e-13">
				<stop  offset="0" style="stop-color:#E9C375"/>
				<stop  offset="1" style="stop-color:#CF9A4C"/>
			</linearGradient>
			<path class="st2" d="M79.9,26.5C75.2,14.6,66,6.1,53.5,2.1C49.2,0.7,44.8,0,40.4,0c-2.7,0-5.3,0.3-7.9,0.7C31,1,29.5,1.4,28,1.8
				c-1.5,0.5-3,1-4.4,1.6c-1,0.4-1.9,0.8-2.8,1.3c-4.6,2.4-8.8,5.6-12.4,9.5c-0.7,0.8-1.4,1.6-2,2.4c-0.7,0.8-1.3,1.7-1.9,2.6
				C3,21.5,1.8,24,0.7,26.5c-0.2,0.6-0.5,1.2-0.7,1.8l0.7,0.2l26.6,8.7c2.2-5,7.2-8.5,13-8.5c5.8,0,10.8,3.5,13,8.5l26.6-8.6
				l0.7-0.2C80.4,27.7,80.2,27.1,79.9,26.5z"/>
			<path class="st3" d="M79.9,26.5C75.2,14.6,66,6.1,53.5,2.1C49.2,0.7,44.8,0,40.4,0c-2.7,0-5.3,0.3-7.9,0.7C31,1,29.5,1.4,28,1.8
				c-1.5,0.5-3,1-4.4,1.6c-1,0.4-1.9,0.8-2.8,1.3c-4.6,2.4-8.8,5.6-12.4,9.5c-0.7,0.8-1.4,1.6-2,2.4c-0.7,0.8-1.3,1.7-1.9,2.6
				C3,21.5,1.8,24,0.7,26.5c-0.2,0.6-0.5,1.2-0.7,1.8l0.7,0.2L1,27.9c0.1-0.4,0.3-0.7,0.4-1C4.6,19,10,12.4,17.1,7.8
				c7-4.6,15-7,23.3-7c4.4,0,8.7,0.7,12.9,2c12.3,4,21.2,12.3,25.9,24c0.1,0.3,0.3,0.7,0.4,1l0.3,0.7l0.7-0.2
				C80.4,27.7,80.2,27.1,79.9,26.5z"/>
		</g>
	</g>
</g>
</svg>
