<?xml version="1.0" encoding="utf-8"?>
<!-- Generator: Adobe Illustrator 19.0.1, SVG Export Plug-In . SVG Version: 6.00 Build 0)  -->
<svg version="1.1" id="Слой_1" xmlns="http://www.w3.org/2000/svg" xmlns:xlink="http://www.w3.org/1999/xlink" x="0px" y="0px"
	 viewBox="0 0 33.1 45.2" style="enable-background:new 0 0 33.1 45.2;" xml:space="preserve">
<style type="text/css">
	.st0{fill:url(#SVGID_1_);}
	.st1{fill:#9D773E;}
</style>
<g id="_x33_">
	<g>
		
			<image style="overflow:visible;opacity:0.4;" width="213" height="264" xlink:href="3372FABC.png"  transform="matrix(0.24 0 0 0.24 -11 -9)">
		</image>
		<g>
			<linearGradient id="SVGID_1_" gradientUnits="userSpaceOnUse" x1="29.784" y1="10.6244" x2="2.0084" y2="26.6606">
				<stop  offset="0" style="stop-color:#E8C275"/>
				<stop  offset="1" style="stop-color:#CE9A4B"/>
			</linearGradient>
			<path class="st0" d="M28.4,11.7c0-0.9,0.1-1.9,0.3-2.9L2.4,0.2L2.1,0.1L1.7,0c-4.8,17,0.8,34.3,14.7,45.2l0.2-0.3l0.2-0.3
				l16.2-22.3C30.1,19.6,28.4,15.7,28.4,11.7z"/>
		</g>
	</g>
	<path class="st1" d="M2.4,0.2L2.1,0.1L1.7,0c-4.8,17,0.8,34.3,14.7,45.2l0.2-0.3l0.2-0.3C3.2,33.9-2.3,16.9,2.4,0.2z"/>
</g>
</svg>
