<?xml version="1.0" encoding="iso-8859-1"?>
<!-- Generator: Adobe Illustrator 19.0.1, SVG Export Plug-In . SVG Version: 6.00 Build 0)  -->
<svg version="1.1" id="Capa_1" xmlns="http://www.w3.org/2000/svg" xmlns:xlink="http://www.w3.org/1999/xlink" x="0px" y="0px"
	 viewBox="-49 141 512 512" style="enable-background:new -49 141 512 512;" xml:space="preserve">
<path d="M325.14,579c-0.66,0-1.309-0.07-1.96-0.2c-0.64-0.13-1.27-0.32-1.87-0.57s-1.18-0.56-1.729-0.92
	c-0.54-0.359-1.061-0.78-1.521-1.24c-1.859-1.859-2.92-4.439-2.92-7.069c0-0.65,0.061-1.31,0.191-1.95s0.319-1.271,0.569-1.88
	c0.25-0.601,0.561-1.18,0.92-1.72c0.36-0.551,0.78-1.061,1.24-1.521c0.46-0.46,0.98-0.88,1.521-1.24c0.55-0.37,1.13-0.67,1.729-0.92
	c0.601-0.25,1.23-0.45,1.87-0.569c1.29-0.261,2.62-0.261,3.91,0c0.64,0.119,1.27,0.319,1.87,0.569s1.18,0.55,1.73,0.92
	c0.54,0.36,1.06,0.78,1.52,1.24c0.46,0.46,0.88,0.97,1.24,1.521c0.359,0.54,0.67,1.119,0.92,1.72c0.25,0.609,0.44,1.24,0.569,1.88
	c0.13,0.64,0.19,1.3,0.19,1.95c0,2.63-1.061,5.21-2.92,7.069c-0.46,0.46-0.98,0.881-1.52,1.24c-0.55,0.36-1.13,0.67-1.73,0.92
	c-0.601,0.25-1.23,0.44-1.87,0.57C326.44,578.93,325.79,579,325.14,579z"/>
<path d="M285.252,579H88.864c-5.523,0-10-4.478-10-10s4.477-10,10-10h196.388c5.522,0,10,4.478,10,10S290.774,579,285.252,579z"/>
<path d="M403.282,344.775h-9.565l-30.918-68.416c-0.003-0.006-0.005-0.013-0.008-0.019l-27.213-60.218
	c-2.273-5.033-8.199-7.271-13.23-4.994l-50.574,22.854C261.965,180.831,215.312,141,159.919,141
	c-62.721,0-113.748,51.027-113.748,113.748c0,14.221,2.597,28.038,7.568,40.921h-8.776c-32.595,0-59.113,26.515-59.113,59.107
	v251.895C-14.15,632.217,6.633,653,32.18,653h375.628c11.217,0,20.343-9.126,20.343-20.343V369.644
	C428.15,355.932,416.994,344.775,403.282,344.775z M278.233,344.775c-19.868-34.744-63.674-49.42-100.76-32.66
	c-15.142,6.843-27.691,18.309-35.89,32.66H75.168l186.682-84.362c14.098,22.712,38.919,35.905,64.728,35.905
	c7.272,0,14.624-1.048,21.836-3.226l23.356,51.683H278.233z M253.708,344.775H166.08c5.423-6.091,12.096-11.03,19.629-14.436
	C209.521,319.578,237.054,326.194,253.708,344.775z M97.776,254.748c0-34.266,27.877-62.143,62.143-62.143
	s62.144,27.877,62.144,62.143c0,0.569-0.008,1.139-0.023,1.709l-101.89,46.044C106.049,290.74,97.776,273.268,97.776,254.748z
	 M340.08,274.65c-22.59,5.666-46.571-3.387-59.787-22.569l41.178-18.609L340.08,274.65z M159.919,161
	c47.34,0,86.935,35.294,92.958,81.521l-11.128,5.028c-3.658-41.936-38.962-74.944-81.831-74.944
	c-45.294,0-82.143,36.849-82.143,82.143c0,21.285,8.265,41.522,22.671,56.657l-11.079,5.007c-4.229-4.832-7.956-10.08-11.117-15.667
	c-0.118-0.208-0.242-0.41-0.373-0.607c-7.645-13.738-11.707-29.25-11.707-45.39C66.171,203.056,108.227,161,159.919,161z
	 M44.963,315.669h18.892c2.035,3.19,4.238,6.29,6.603,9.288l-43.856,19.819H7.146C11.575,328.04,26.852,315.669,44.963,315.669z
	 M407.808,633H32.18c-14.519,0-26.33-11.811-26.33-26.329V364.775h397.433c2.685,0,4.868,2.184,4.868,4.868v83.52h-20v-58.389
	c0-5.523-4.477-10-10-10H35.85c-5.522,0-10,4.477-10,10V603c0,5.522,4.478,10,10,10h342.3c5.523,0,10-4.478,10-10v-52.083h20v81.74
	C408.15,632.847,407.997,633,407.808,633z M408.15,530.917h-86.718c-15.922,0-28.876-12.954-28.876-28.876
	c0-15.923,12.954-28.877,28.876-28.877h86.718L408.15,530.917L408.15,530.917z M368.15,453.164h-46.718
	c-26.95,0-48.876,21.926-48.876,48.877c0,26.95,21.926,48.876,48.876,48.876h46.718V593H45.85V404.775h322.3V453.164z"/>
</svg>
