<?xml version="1.0" encoding="iso-8859-1"?>
<!-- Generator: Adobe Illustrator 19.0.1, SVG Export Plug-In . SVG Version: 6.00 Build 0)  -->
<svg version="1.1" id="Capa_1" xmlns="http://www.w3.org/2000/svg" xmlns:xlink="http://www.w3.org/1999/xlink" x="0px" y="0px"
	 viewBox="73.48 205 267.04 384.001" style="enable-background:new 73.48 205 267.04 384.001;" xml:space="preserve">
<path d="M324.52,205H89.48c-8.837,0-16,7.163-16,16v309.28c0,8.837,7.163,16,16,16h24.88V581c0,4.418,3.581,8,7.999,8.001
	c2.339,0,4.561-1.023,6.081-2.801l17.6-20.48l17.6,20.48c2.872,3.358,7.922,3.752,11.279,0.881c1.777-1.52,2.801-3.742,2.801-6.081
	v-34.72h146.8c8.837,0,16-7.163,16-16V221C340.52,212.163,333.357,205,324.52,205z M161.72,559.16l-9.6-11.2
	c-2.872-3.358-7.921-3.752-11.279-0.881c-0.316,0.27-0.61,0.565-0.881,0.881l-9.6,11.2v-30.4c10.107,3.807,21.253,3.807,31.36,0
	L161.72,559.16z M145.72,515.56c-16.215,0-29.36-13.145-29.36-29.36c0-16.215,13.145-29.36,29.36-29.36s29.36,13.145,29.36,29.36v0
	c0.001,16.091-12.95,29.185-29.04,29.36H145.72z M324.12,530.2h-146.4v-11.6c17.929-17.496,18.28-46.215,0.784-64.144
	c-17.496-17.929-46.215-18.28-64.144-0.784c-17.929,17.496-18.28,46.215-0.784,64.144c0.258,0.265,0.519,0.526,0.784,0.784v11.6
	H89.48V221h235.04L324.12,530.2z"/>
<path d="M137.48,284.28h139.04c4.418,0,8-3.582,8-8s-3.582-8-8-8H137.48c-4.418,0-8,3.582-8,8S133.062,284.28,137.48,284.28z"/>
<path d="M137.48,330.28h139.04c4.418,0,8-3.582,8-8s-3.582-8-8-8H137.48c-4.418,0-8,3.582-8,8S133.062,330.28,137.48,330.28z"/>
<path d="M137.48,376.28h139.04c4.418,0,8-3.582,8-8s-3.582-8-8-8H137.48c-4.418,0-8,3.582-8,8S133.062,376.28,137.48,376.28z"/>
<path d="M137.48,422.28h139.04c4.418,0,8-3.582,8-8s-3.582-8-8-8H137.48c-4.418,0-8,3.582-8,8S133.062,422.28,137.48,422.28z"/>
<path d="M276.52,452.28H213c-4.418,0-8,3.582-8,8s3.582,8,8,8h63.52c4.418,0,8-3.582,8-8S280.938,452.28,276.52,452.28z"/>
</svg>
