<?xml version="1.0" encoding="utf-8"?>
<!-- Generator: Adobe Illustrator 19.0.1, SVG Export Plug-In . SVG Version: 6.00 Build 0)  -->
<svg version="1.1" id="Слой_1" xmlns="http://www.w3.org/2000/svg" xmlns:xlink="http://www.w3.org/1999/xlink" x="0px" y="0px"
	 viewBox="-241 332 129 129" style="enable-background:new -241 332 129 129;" xml:space="preserve">
<g>
	<path d="M-189.4,428.7c11,0,21-3.9,28.8-10.5l35,35c0.8,0.8,1.8,1.2,2.9,1.2s2.1-0.4,2.9-1.2c1.6-1.6,1.6-4.2,0-5.8l-35-35
		c6.5-7.8,10.5-17.9,10.5-28.8c0-24.9-20.2-45.1-45.1-45.1c-24.8,0-45.1,20.3-45.1,45.1C-234.5,408.5-214.2,428.7-189.4,428.7z
		 M-189.4,346.7c20.4,0,36.9,16.6,36.9,36.9c0,20.4-16.5,36.9-36.9,36.9s-36.9-16.6-36.9-36.9C-226.3,363.3-209.7,346.7-189.4,346.7
		z"/>
</g>
</svg>
