<?xml version="1.0" encoding="iso-8859-1"?>
<!-- Generator: Adobe Illustrator 19.0.1, SVG Export Plug-In . SVG Version: 6.00 Build 0)  -->
<svg version="1.1" id="Capa_1" xmlns="http://www.w3.org/2000/svg" xmlns:xlink="http://www.w3.org/1999/xlink" x="0px" y="0px"
	 viewBox="-49 141 512 512" style="enable-background:new -49 141 512 512;" xml:space="preserve">
<path d="M-25,637h400c4.418,0,8-3.582,8-8V165c0-4.418-3.582-8-8-8H-25c-4.418,0-8,3.582-8,8v464C-33,633.418-29.418,637-25,637z
	 M-17,173h384v448H-17V173z"/>
<path d="M430.432,162.032c-1.635-4.105-6.288-6.106-10.393-4.471c-2.041,0.813-3.658,2.43-4.471,4.471l-16,40
	c-0.376,0.944-0.569,1.952-0.568,2.968v408c0,13.255,10.745,24,24,24s24-10.745,24-24V205c0.001-1.016-0.192-2.024-0.568-2.968
	L430.432,162.032z M415,237h16v344h-16V237z M415,206.536l8-20l8,20V221h-16V206.536z M431,613c0,4.418-3.582,8-8,8s-8-3.582-8-8
	v-16h16V613z"/>
<path d="M87,413c48.601,0,88-39.399,88-88s-39.399-88-88-88s-88,39.399-88,88c-0.306,48.295,38.597,87.694,86.892,88
	C86.262,413.002,86.631,413.002,87,413z M143.264,369.944L98.312,325l44.952-44.944
	C164.246,306.345,164.246,343.655,143.264,369.944L143.264,369.944z M95,305.688V253.44c13.524,1.467,26.344,6.778,36.944,15.304
	L95,305.688z M79,253.448V325c0.016,0.93,0.195,1.851,0.528,2.72c0.04,0.104,0,0.216,0.08,0.32s0.208,0.288,0.288,0.448
	c0.308,0.634,0.701,1.224,1.168,1.752c0.112,0.128,0.16,0.296,0.28,0.416l50.6,50.6c-31.068,24.819-76.374,19.752-101.193-11.316
	s-19.752-76.374,11.316-101.193C52.688,260.263,65.492,254.959,79,253.448z"/>
<rect x="319" y="285" width="32" height="16"/>
<rect x="223" y="285" width="80" height="16"/>
<rect x="303" y="349" width="48" height="16"/>
<rect x="223" y="349" width="64" height="16"/>
<rect x="271" y="317" width="80" height="16"/>
<rect x="223" y="317" width="32" height="16"/>
<path d="M195.96,300.44c0.967,0.383,2,0.573,3.04,0.56c4.374,0.044,7.956-3.465,8-7.839c0.001-0.054,0.001-0.107,0-0.161
	c-0.029-2.118-0.858-4.147-2.32-5.68c-3.188-3.011-8.172-3.011-11.36,0c-1.462,1.533-2.291,3.562-2.32,5.68
	c-0.021,2.128,0.815,4.175,2.32,5.68C194.116,299.384,195.004,299.976,195.96,300.44z"/>
<path d="M193.32,330.68c3.111,3.137,8.177,3.158,11.314,0.047c1.526-1.513,2.379-3.577,2.366-5.727
	c0.028-1.049-0.192-2.091-0.64-3.04c-0.406-0.969-0.974-1.862-1.68-2.64c-3.208-2.96-8.152-2.96-11.36,0
	c-0.723,0.765-1.293,1.661-1.68,2.64C190.365,324.937,191.03,328.39,193.32,330.68L193.32,330.68z"/>
<path d="M193.32,362.68c3.111,3.137,8.177,3.158,11.314,0.047c1.526-1.513,2.379-3.577,2.366-5.727c0-4.418-3.582-8-8-8
	s-8,3.582-8,8C190.979,359.128,191.815,361.175,193.32,362.68z"/>
<rect x="223" y="197" width="32" height="16"/>
<rect x="95" y="197" width="112" height="16"/>
<path d="M287,589H15V437c0-4.418-3.582-8-8-8s-8,3.582-8,8v160c0,4.418,3.582,8,8,8h280c4.418,0,8-3.582,8-8S291.418,589,287,589z"
	/>
<path d="M31.84,536.576c1.972,3.954,6.776,5.56,10.73,3.587c0.002-0.001,0.004-0.002,0.006-0.003l24-12l39.144,34.8
	c2.141,1.899,5.134,2.509,7.848,1.6l45.656-15.2l53.6,15.32c0.708,0.202,1.44,0.31,2.176,0.32c2.674,0,5.172-1.335,6.656-3.56
	L243.8,528.2l14.28,11.104c3.426,2.789,8.465,2.273,11.255-1.153c2.789-3.426,2.273-8.465-1.153-11.255
	c-0.091-0.074-0.183-0.146-0.278-0.216l-15.2-11.824l16.952-25.424c2.452-3.676,1.46-8.644-2.216-11.096s-8.644-1.46-11.096,2.216
	L240.04,505l-44.128-34.328c-2.802-2.191-6.713-2.269-9.6-0.192l-52.08,37.192l-27.696-13.848c-2.251-1.125-4.901-1.125-7.152,0
	l-30.4,15.2l-24.744-22c-3.3-2.938-8.358-2.644-11.296,0.656s-2.644,8.358,0.656,11.296l0,0l20,17.752l-18.232,9.112
	C31.433,527.834,29.855,532.637,31.84,536.576z M103,509.944l28.424,14.256c2.651,1.321,5.816,1.068,8.224-0.656l51.152-36.528
	l40.344,31.384l-19.56,29.344l-50.4-14.4c-1.551-0.44-3.199-0.401-4.728,0.112l-43.616,14.528l-30.904-27.472L103,509.944z"/>
<path d="M343,477h-32c-4.418,0-8,3.582-8,8s3.582,8,8,8h32c4.418,0,8-3.582,8-8S347.418,477,343,477z"/>
<path d="M343,525h-32c-4.418,0-8,3.582-8,8s3.582,8,8,8h32c4.418,0,8-3.582,8-8S347.418,525,343,525z"/>
</svg>
